<svg width="40" height="40" viewBox="0 0 40 40" fill="none" xmlns="http://www.w3.org/2000/svg">
<rect width="40" height="40" rx="12" fill="#FC004A"/>
<g clip-path="url(#clip0_2001_122)">
<path fill-rule="evenodd" clip-rule="evenodd" d="M20 6C20.5304 6 21.0391 6.21071 21.4142 6.58579C21.7893 6.96086 22 7.46957 22 8V18H32C32.5304 18 33.0391 18.2107 33.4142 18.5858C33.7893 18.9609 34 19.4696 34 20C34 20.5304 33.7893 21.0391 33.4142 21.4142C33.0391 21.7893 32.5304 22 32 22H22V32C22 32.5304 21.7893 33.0391 21.4142 33.4142C21.0391 33.7893 20.5304 34 20 34C19.4696 34 18.9609 33.7893 18.5858 33.4142C18.2107 33.0391 18 32.5304 18 32V22H8C7.46957 22 6.96086 21.7893 6.58579 21.4142C6.21071 21.0391 6 20.5304 6 20C6 19.4696 6.21071 18.9609 6.58579 18.5858C6.96086 18.2107 7.46957 18 8 18H18V8C18 7.46957 18.2107 6.96086 18.5858 6.58579C18.9609 6.21071 19.4696 6 20 6Z" fill="white"/>
</g>
<defs>
<clipPath id="clip0_2001_122">
<rect width="40" height="40" rx="20" fill="white"/>
</clipPath>
</defs>
</svg>
